<svg xmlns="http://www.w3.org/2000/svg" viewBox="0 0 1920 1080"><defs><style>.cls-1{fill:#fff;}.cls-2{fill:#bfe7f3;}.cls-3{fill:#a1dcec;}</style></defs><g id="Layer_3" data-name="Layer 3"><rect class="cls-1" width="1920" height="1080"/><rect class="cls-2" width="1920" height="329"/><path class="cls-3" d="M0,884a1844.82,1844.82,0,0,0,365,48c223.83,6.84,270.9-33,549-51,299.91-19.36,344.86,20.6,590-9a2053.58,2053.58,0,0,0,416-95V203.86c-192.56,78.48-346.66,86-453,77.82C1328.57,271,1301.29,236,1142,224.77c-221.74-15.63-223.62,48.36-429,39.49-218.91-9.46-273.53-84.6-505-75.5a1063.91,1063.91,0,0,0-208,29Z"/><path class="cls-3" d="M0,0V89.57a1514.31,1514.31,0,0,0,208,25C395,124,489.66,93.68,640,80c260.73-23.72,232.9,44.05,504,27,229.28-14.42,296.59-65.88,510-52a1254.82,1254.82,0,0,1,266,46.57V0Z"/></g></svg>